<svg xmlns="http://www.w3.org/2000/svg" viewBox="0 0 600 360" role="img" aria-label="Grid widget preview">
  <rect width="600" height="360" fill="#f4f5f7"/>
  <g fill="#ffffff" stroke="#e1e3e5">
    <rect x="24" y="24" width="170" height="148" rx="10"/>
    <rect x="215" y="24" width="170" height="148" rx="10"/>
    <rect x="406" y="24" width="170" height="148" rx="10"/>
    <rect x="24" y="188" width="170" height="148" rx="10"/>
    <rect x="215" y="188" width="170" height="148" rx="10"/>
    <rect x="406" y="188" width="170" height="148" rx="10"/>
  </g>
  <g fill="#fbbc04" font-family="sans-serif" font-size="18">
    <text x="40" y="56">★★★★★</text>
    <text x="231" y="56">★★★★★</text>
    <text x="422" y="56">★★★★★</text>
    <text x="40" y="220">★★★★★</text>
    <text x="231" y="220">★★★★★</text>
    <text x="422" y="220">★★★★★</text>
  </g>
  <g fill="#c9cccf">
    <rect x="40" y="72" width="138" height="8" rx="4"/>
    <rect x="40" y="88" width="110" height="8" rx="4"/>
    <rect x="40" y="120" width="90" height="8" rx="4"/>
    <rect x="231" y="72" width="138" height="8" rx="4"/>
    <rect x="231" y="88" width="120" height="8" rx="4"/>
    <rect x="231" y="120" width="80" height="8" rx="4"/>
    <rect x="422" y="72" width="138" height="8" rx="4"/>
    <rect x="422" y="88" width="100" height="8" rx="4"/>
    <rect x="422" y="120" width="95" height="8" rx="4"/>
    <rect x="40" y="236" width="138" height="8" rx="4"/>
    <rect x="40" y="252" width="120" height="8" rx="4"/>
    <rect x="40" y="284" width="85" height="8" rx="4"/>
    <rect x="231" y="236" width="138" height="8" rx="4"/>
    <rect x="231" y="252" width="105" height="8" rx="4"/>
    <rect x="231" y="284" width="92" height="8" rx="4"/>
    <rect x="422" y="236" width="138" height="8" rx="4"/>
    <rect x="422" y="252" width="118" height="8" rx="4"/>
    <rect x="422" y="284" width="78" height="8" rx="4"/>
  </g>
</svg>
